<?xml version='1.0' encoding='iso-8859-1'?>
<!-- Uploaded to: SVG Repo, www.svgrepo.com, Generator: SVG Repo Mixer Tools -->
<svg fill="#000000" height="800px" width="800px" version="1.1" xmlns="http://www.w3.org/2000/svg" viewBox="0 0 463 463" xmlns:xlink="http://www.w3.org/1999/xlink" enable-background="new 0 0 463 463">
  <path d="m355.256,145.405c-34.083-19.724-60.085-50.573-73.704-87.254 4.229-2.018 8.958-3.151 13.947-3.151h15.971c0.008,0 0.015,0.002 0.023,0.002 0.051,0 0.102-0.008 0.153-0.009 0.234-0.005 0.465-0.017 0.693-0.042 0.079-0.009 0.157-0.025 0.236-0.036 0.216-0.031 0.43-0.07 0.639-0.119 0.034-0.008 0.069-0.011 0.103-0.019l25.941-6.485c6.912-1.729 11.74-7.912 11.74-15.037v-11.509c0-7.125-4.828-13.309-11.741-15.037l-25.94-6.485c-0.04-0.01-0.081-0.014-0.121-0.024-0.146-0.034-0.293-0.062-0.442-0.087-0.11-0.019-0.221-0.037-0.331-0.051-0.124-0.015-0.25-0.026-0.376-0.035-0.136-0.01-0.271-0.018-0.406-0.021-0.047,2.45463e-15-0.093-0.006-0.142-0.006h-98.745c-10.551,0-20.471,4.109-27.931,11.569l-56.97,56.971c-4.449,4.449-5.768,11.079-3.36,16.892s8.028,9.568 14.32,9.568h29.187v9h-0.5c-8.547,0-15.5,6.953-15.5,15.5v22.273c0,10.239-2.784,20.291-8.052,29.069l-20.639,34.398c-12.632,21.054-19.31,45.161-19.31,69.714v132.546c0,30.603 24.897,55.5 55.5,55.5h96c30.603,0 55.5-24.897 55.5-55.5v-132.546c0-24.553-6.677-48.66-19.31-69.714l-20.639-34.398c-5.268-8.778-8.052-18.83-8.052-29.069v-22.273c0-8.547-6.953-15.5-15.5-15.5h-0.5v-9h8.5c4.142,0 7.5-3.358 7.5-7.5 0-7.219 2.369-13.893 6.365-19.292 15.273,37.82 42.778,69.577 78.378,90.18 1.183,0.685 2.475,1.01 3.75,1.01 2.589,0 5.108-1.343 6.498-3.745 2.076-3.586 0.852-8.174-2.733-10.248zm-19.257-123.659v11.508c0,0.23-0.156,0.43-0.378,0.485l-16.622,4.155v-20.788l16.621,4.155c0.224,0.055 0.379,0.255 0.379,0.485zm-199.828,191.212l20.639-34.398c5.073-8.455 8.32-17.844 9.585-27.56h33.604v144.037c-1.835-0.565-3.396-1.343-5.197-2.244-4.268-2.135-9.579-4.792-19.346-4.792-9.765,0-15.076,2.658-19.343,4.793-3.721,1.862-6.409,3.207-12.631,3.207-6.225,0-8.914-1.345-12.636-3.208-3.02-1.511-6.572-3.279-11.847-4.186v-13.652c-4.26326e-14-21.836 5.938-43.274 17.172-61.997zm71.328,186.042c4.687,0 8.5,3.813 8.5,8.5v8.5h-17v-8.5c0-4.687 3.813-8.5 8.5-8.5zm48,49h-96c-22.332,0-40.5-18.168-40.5-40.5v-103.517c1.808,0.564 3.356,1.334 5.136,2.225 4.268,2.135 9.58,4.792 19.347,4.792 9.766,0 15.076-2.658 19.344-4.793 3.721-1.862 6.409-3.207 12.63-3.207 6.224,0 8.912,1.345 12.634,3.208 3.032,1.517 6.6,3.293 11.909,4.196v73.096c0,0.575 0.071,1.132 0.193,1.669-9.39,3.081-16.193,11.924-16.193,22.331v16c0,4.142 3.358,7.5 7.5,7.5h32c4.142,0 7.5-3.358 7.5-7.5v-16c0-10.407-6.803-19.25-16.193-22.331 0.122-0.537 0.193-1.094 0.193-1.669v-73.117c5.241-0.91 8.776-2.671 11.785-4.176 3.723-1.862 6.413-3.208 12.639-3.208 6.241,0 8.937,1.346 12.668,3.21 4.273,2.134 9.592,4.79 19.37,4.79s15.097-2.656 19.371-4.79c1.791-0.895 3.347-1.668 5.168-2.233v103.524c-0.001,22.332-18.169,40.5-40.501,40.5zm23.329-235.042c11.234,18.724 17.172,40.162 17.172,61.997v13.65c-5.286,0.906-8.844,2.674-11.87,4.185-3.731,1.864-6.427,3.21-12.668,3.21-6.241,0-8.937-1.346-12.668-3.21-4.273-2.134-9.592-4.79-19.37-4.79-9.768,0-15.081,2.657-19.349,4.792-1.76,0.881-3.293,1.643-5.074,2.205v-143.997h33.604c1.265,9.715 4.512,19.104 9.585,27.56l20.638,34.398zm-30.829-93.458v16.5h-81v-16.5c0-0.276 0.224-0.5 0.5-0.5h80c0.276,0 0.5,0.224 0.5,0.5zm-16-15.5h-49v-9h49v9zm16.592-24h-109.778c-0.179,0-0.334,0-0.462-0.309-0.127-0.309-0.018-0.418 0.108-0.545l56.971-56.971c4.628-4.627 10.78-7.175 17.324-7.175h91.245v25h-8.5c-23.64,0-43.302,17.359-46.908,40z"/>
</svg>