<!DOCTYPE svg PUBLIC "-//W3C//DTD SVG 1.1//EN" "http://www.w3.org/Graphics/SVG/1.1/DTD/svg11.dtd">
<!-- Uploaded to: SVG Repo, www.svgrepo.com, Transformed by: SVG Repo Mixer Tools -->
<svg fill="#293c86" height="800px" width="800px" version="1.1" id="Layer_1" xmlns="http://www.w3.org/2000/svg" xmlns:xlink="http://www.w3.org/1999/xlink" viewBox="0 0 512 512" xml:space="preserve" stroke="#293c86" stroke-width="0.00512">
<g id="SVGRepo_bgCarrier" stroke-width="0"/>
<g id="SVGRepo_tracerCarrier" stroke-linecap="round" stroke-linejoin="round"/>
<g id="SVGRepo_iconCarrier"> <g> <g> <g> <path d="M385.347,258.695c-26.071,0-49.955,9.543-68.345,25.319l-9.803-9.803v-39.768c0-4.466-3.62-8.084-8.084-8.084 s-8.084,3.618-8.084,8.084v23.599L254.889,221.9c-3.156-3.156-8.275-3.156-11.432,0c-3.157,3.157-3.157,8.275,0,11.433 l49.907,49.905c0.025,0.024,0.048,0.049,0.073,0.072l12.135,12.135c-15.775,18.388-25.319,42.273-25.319,68.344 c0,57.95,47.145,105.095,105.095,105.095c6.437,0,12.742-0.582,18.863-1.696v15.169c0,7.43-6.044,13.474-13.474,13.474H67.368 c-7.43,0-13.474-6.044-13.474-13.474v-56.589h212.884c4.465,0,8.084-3.619,8.084-8.084s-3.62-8.084-8.084-8.084H40.421 c-1.485,0-2.695-1.208-2.695-2.695v-86.232c0-1.486,1.209-2.695,2.695-2.695h161.684c4.465,0,8.084-3.618,8.084-8.084 c0-4.466-3.62-8.084-8.084-8.084H53.895V115.874c0-7.43,6.044-13.474,13.474-13.474h88.926v45.81c0,4.466,3.62,8.084,8.084,8.084 c4.465,0,8.084-3.618,8.084-8.084V102.4h113.179v45.81c0,4.466,3.62,8.084,8.084,8.084s8.084-3.618,8.084-8.084V102.4h88.926 c7.43,0,13.474,6.044,13.474,13.474v129.347c0,4.466,3.62,8.084,8.084,8.084s8.084-3.618,8.084-8.084V115.874 c0-16.344-13.297-29.642-29.642-29.642h-88.926V72.758C301.811,32.639,269.172,0,229.053,0 c-40.119,0-72.758,32.639-72.758,72.758v13.474H67.368c-16.345,0-29.642,13.298-29.642,29.642v186.129 c-9.13,1.312-16.168,9.185-16.168,18.671v86.232c0,9.487,7.039,17.359,16.168,18.671v56.781 c0,16.344,13.297,29.642,29.642,29.642h323.368c16.345,0,29.642-13.298,29.642-29.642v-19.477 c40.779-14.458,70.063-53.419,70.063-99.092C490.442,305.84,443.297,258.695,385.347,258.695z M172.463,72.758 c0-31.203,25.385-56.589,56.589-56.589s56.589,25.387,56.589,56.589v13.474H172.463V72.758z M385.347,452.716 c-49.034,0-88.926-39.893-88.926-88.926c0-49.033,39.892-88.926,88.926-88.926c49.035,0,88.926,39.893,88.926,88.926 C474.274,412.823,434.382,452.716,385.347,452.716z"/> <path d="M263.545,285.642c4.465,0,8.084-3.618,8.084-8.084c0-4.466-3.62-8.084-8.084-8.084H256c-4.465,0-8.084,3.618-8.084,8.084 c0,4.466,3.62,8.084,8.084,8.084H263.545z"/> <path d="M385.347,320.428c-23.909,0-43.36,19.452-43.36,43.362c0,23.91,19.452,43.362,43.36,43.362 c23.909,0,43.36-19.452,43.36-43.362C428.708,339.88,409.256,320.428,385.347,320.428z M385.347,390.983 c-14.994,0-27.192-12.199-27.192-27.193c0-14.995,12.198-27.193,27.192-27.193s27.192,12.2,27.192,27.193 S400.341,390.983,385.347,390.983z"/> <path d="M266.779,199.411c32.013,0,60.459,19.173,72.47,48.844c1.675,4.138,6.39,6.135,10.527,4.46 c4.139-1.676,6.135-6.389,4.46-10.528c-14.494-35.807-48.823-58.945-87.457-58.945h-53.895c-4.465,0-8.084,3.618-8.084,8.084 v53.895c0,34.264,18.629,65.885,48.618,82.525c1.243,0.69,2.588,1.016,3.915,1.015c2.842,0,5.6-1.503,7.076-4.163 c2.167-3.904,0.758-8.826-3.146-10.991c-24.855-13.791-40.295-39.994-40.295-68.386v-45.811H266.779z"/> </g> </g> </g> </g>
</svg>